  0
SECTION
  2
BLOCKS
  0
ENDSEC
  0
SECTION
  2
ENTITIES
  0
LINE
  8
0
 10
0
 20
3
 11
0.00730705
 21
2.79073
  0
LINE
  8
0
 10
0.00730705
 20
2.79073
 11
0.0291958
 21
2.58248
  0
LINE
  8
0
 10
0.0291958
 20
2.58248
 11
0.0655565
 21
2.37626
  0
LINE
  8
0
 10
0.0655565
 20
2.37626
 11
0.116215
 21
2.17309
  0
LINE
  8
0
 10
0.116215
 20
2.17309
 11
0.180922
 21
1.97394
  0
LINE
  8
0
 10
0.180922
 20
1.97394
 11
0.259363
 21
1.77979
  0
LINE
  8
0
 10
0.259363
 20
1.77979
 11
0.351157
 21
1.59159
  0
LINE
  8
0
 10
0.351157
 20
1.59159
 11
0.455855
 21
1.41024
  0
LINE
  8
0
 10
0.455855
 20
1.41024
 11
0.572948
 21
1.23664
  0
LINE
  8
0
 10
0.572948
 20
1.23664
 11
0.701866
 21
1.07164
  0
LINE
  8
0
 10
0.701866
 20
1.07164
 11
0.84198
 21
0.916024
  0
LINE
  8
0
 10
0.84198
 20
0.916024
 11
0.992608
 21
0.770565
  0
LINE
  8
0
 10
0.992608
 20
0.770565
 11
1.15302
 21
0.635967
  0
LINE
  8
0
 10
1.15302
 20
0.635967
 11
1.32242
 21
0.512887
  0
LINE
  8
0
 10
1.32242
 20
0.512887
 11
1.5
 21
0.401923
  0
LINE
  8
0
 10
1.5
 20
0.401923
 11
1.68489
 21
0.303617
  0
LINE
  8
0
 10
1.68489
 20
0.303617
 11
1.87618
 21
0.218448
  0
LINE
  8
0
 10
1.87618
 20
0.218448
 11
2.07295
 21
0.14683
  0
LINE
  8
0
 10
2.07295
 20
0.14683
 11
2.27423
 21
0.0891123
  0
LINE
  8
0
 10
2.27423
 20
0.0891123
 11
2.47906
 21
0.0455761
  0
LINE
  8
0
 10
2.47906
 20
0.0455761
 11
2.68641
 21
0.0164337
  0
LINE
  8
0
 10
2.68641
 20
0.0164337
 11
2.8953
 21
0.00182724
  0
LINE
  8
0
 10
2.8953
 20
0.00182724
 11
97.1047
 21
0.00182724
  0
LINE
  8
0
 10
97.1047
 20
0.00182724
 11
97.3136
 21
0.0164337
  0
LINE
  8
0
 10
97.3136
 20
0.0164337
 11
97.5209
 21
0.0455761
  0
LINE
  8
0
 10
97.5209
 20
0.0455761
 11
97.7258
 21
0.0891123
  0
LINE
  8
0
 10
97.7258
 20
0.0891123
 11
97.927
 21
0.14683
  0
LINE
  8
0
 10
97.927
 20
0.14683
 11
98.1238
 21
0.218448
  0
LINE
  8
0
 10
98.1238
 20
0.218448
 11
98.3151
 21
0.303617
  0
LINE
  8
0
 10
98.3151
 20
0.303617
 11
98.5
 21
0.401923
  0
LINE
  8
0
 10
98.5
 20
0.401923
 11
98.6776
 21
0.512887
  0
LINE
  8
0
 10
98.6776
 20
0.512887
 11
98.847
 21
0.635967
  0
LINE
  8
0
 10
98.847
 20
0.635967
 11
99.0074
 21
0.770565
  0
LINE
  8
0
 10
99.0074
 20
0.770565
 11
99.158
 21
0.916024
  0
LINE
  8
0
 10
99.158
 20
0.916024
 11
99.2981
 21
1.07164
  0
LINE
  8
0
 10
99.2981
 20
1.07164
 11
99.427
 21
1.23664
  0
LINE
  8
0
 10
99.427
 20
1.23664
 11
99.5441
 21
1.41024
  0
LINE
  8
0
 10
99.5441
 20
1.41024
 11
99.6488
 21
1.59159
  0
LINE
  8
0
 10
99.6488
 20
1.59159
 11
99.7406
 21
1.77979
  0
LINE
  8
0
 10
99.7406
 20
1.77979
 11
99.8191
 21
1.97394
  0
LINE
  8
0
 10
99.8191
 20
1.97394
 11
99.8838
 21
2.17309
  0
LINE
  8
0
 10
99.8838
 20
2.17309
 11
99.9344
 21
2.37626
  0
LINE
  8
0
 10
99.9344
 20
2.37626
 11
99.9708
 21
2.58248
  0
LINE
  8
0
 10
99.9708
 20
2.58248
 11
99.9927
 21
2.79073
  0
LINE
  8
0
 10
99.9927
 20
2.79073
 11
100
 21
3
  0
LINE
  8
0
 10
100
 20
3
 11
100
 21
71
  0
LINE
  8
0
 10
100
 20
71
 11
99.9927
 21
71.2093
  0
LINE
  8
0
 10
99.9927
 20
71.2093
 11
99.9708
 21
71.4175
  0
LINE
  8
0
 10
99.9708
 20
71.4175
 11
99.9344
 21
71.6237
  0
LINE
  8
0
 10
99.9344
 20
71.6237
 11
99.8838
 21
71.8269
  0
LINE
  8
0
 10
99.8838
 20
71.8269
 11
99.8191
 21
72.0261
  0
LINE
  8
0
 10
99.8191
 20
72.0261
 11
99.7406
 21
72.2202
  0
LINE
  8
0
 10
99.7406
 20
72.2202
 11
99.6488
 21
72.4084
  0
LINE
  8
0
 10
99.6488
 20
72.4084
 11
99.5441
 21
72.5898
  0
LINE
  8
0
 10
99.5441
 20
72.5898
 11
99.427
 21
72.7634
  0
LINE
  8
0
 10
99.427
 20
72.7634
 11
99.2981
 21
72.9284
  0
LINE
  8
0
 10
99.2981
 20
72.9284
 11
99.158
 21
73.084
  0
LINE
  8
0
 10
99.158
 20
73.084
 11
99.0074
 21
73.2294
  0
LINE
  8
0
 10
99.0074
 20
73.2294
 11
98.847
 21
73.364
  0
LINE
  8
0
 10
98.847
 20
73.364
 11
98.6776
 21
73.4871
  0
LINE
  8
0
 10
98.6776
 20
73.4871
 11
98.5
 21
73.5981
  0
LINE
  8
0
 10
98.5
 20
73.5981
 11
98.3151
 21
73.6964
  0
LINE
  8
0
 10
98.3151
 20
73.6964
 11
98.1238
 21
73.7816
  0
LINE
  8
0
 10
98.1238
 20
73.7816
 11
97.927
 21
73.8532
  0
LINE
  8
0
 10
97.927
 20
73.8532
 11
97.7258
 21
73.9109
  0
LINE
  8
0
 10
97.7258
 20
73.9109
 11
97.5209
 21
73.9544
  0
LINE
  8
0
 10
97.5209
 20
73.9544
 11
97.3136
 21
73.9836
  0
LINE
  8
0
 10
97.3136
 20
73.9836
 11
97.1047
 21
73.9982
  0
LINE
  8
0
 10
97.1047
 20
73.9982
 11
2.8953
 21
73.9982
  0
LINE
  8
0
 10
2.8953
 20
73.9982
 11
2.68641
 21
73.9836
  0
LINE
  8
0
 10
2.68641
 20
73.9836
 11
2.47906
 21
73.9544
  0
LINE
  8
0
 10
2.47906
 20
73.9544
 11
2.27423
 21
73.9109
  0
LINE
  8
0
 10
2.27423
 20
73.9109
 11
2.07295
 21
73.8532
  0
LINE
  8
0
 10
2.07295
 20
73.8532
 11
1.87618
 21
73.7816
  0
LINE
  8
0
 10
1.87618
 20
73.7816
 11
1.68489
 21
73.6964
  0
LINE
  8
0
 10
1.68489
 20
73.6964
 11
1.5
 21
73.5981
  0
LINE
  8
0
 10
1.5
 20
73.5981
 11
1.32242
 21
73.4871
  0
LINE
  8
0
 10
1.32242
 20
73.4871
 11
1.15302
 21
73.364
  0
LINE
  8
0
 10
1.15302
 20
73.364
 11
0.992608
 21
73.2294
  0
LINE
  8
0
 10
0.992608
 20
73.2294
 11
0.84198
 21
73.084
  0
LINE
  8
0
 10
0.84198
 20
73.084
 11
0.701866
 21
72.9284
  0
LINE
  8
0
 10
0.701866
 20
72.9284
 11
0.572948
 21
72.7634
  0
LINE
  8
0
 10
0.572948
 20
72.7634
 11
0.455855
 21
72.5898
  0
LINE
  8
0
 10
0.455855
 20
72.5898
 11
0.351157
 21
72.4084
  0
LINE
  8
0
 10
0.351157
 20
72.4084
 11
0.259363
 21
72.2202
  0
LINE
  8
0
 10
0.259363
 20
72.2202
 11
0.180922
 21
72.0261
  0
LINE
  8
0
 10
0.180922
 20
72.0261
 11
0.116215
 21
71.8269
  0
LINE
  8
0
 10
0.116215
 20
71.8269
 11
0.0655565
 21
71.6237
  0
LINE
  8
0
 10
0.0655565
 20
71.6237
 11
0.0291958
 21
71.4175
  0
LINE
  8
0
 10
0.0291958
 20
71.4175
 11
0.00730705
 21
71.2093
  0
LINE
  8
0
 10
0.00730705
 20
71.2093
 11
0
 21
71
  0
LINE
  8
0
 10
0
 20
71
 11
0
 21
3
  0
LINE
  8
0
 10
2
 20
22
 11
2.00365
 21
22.1046
  0
LINE
  8
0
 10
2.00365
 20
22.1046
 11
2.0146
 21
22.2088
  0
LINE
  8
0
 10
2.0146
 20
22.2088
 11
2.03278
 21
22.3119
  0
LINE
  8
0
 10
2.03278
 20
22.3119
 11
2.05811
 21
22.4135
  0
LINE
  8
0
 10
2.05811
 20
22.4135
 11
2.09046
 21
22.513
  0
LINE
  8
0
 10
2.09046
 20
22.513
 11
2.12968
 21
22.6101
  0
LINE
  8
0
 10
2.12968
 20
22.6101
 11
2.17558
 21
22.7042
  0
LINE
  8
0
 10
2.17558
 20
22.7042
 11
2.22793
 21
22.7949
  0
LINE
  8
0
 10
2.22793
 20
22.7949
 11
2.28647
 21
22.8817
  0
LINE
  8
0
 10
2.28647
 20
22.8817
 11
2.35093
 21
22.9642
  0
LINE
  8
0
 10
2.35093
 20
22.9642
 11
2.42099
 21
23.042
  0
LINE
  8
0
 10
2.42099
 20
23.042
 11
2.4963
 21
23.1147
  0
LINE
  8
0
 10
2.4963
 20
23.1147
 11
2.57651
 21
23.182
  0
LINE
  8
0
 10
2.57651
 20
23.182
 11
2.66121
 21
23.2436
  0
LINE
  8
0
 10
2.66121
 20
23.2436
 11
2.75
 21
23.299
  0
LINE
  8
0
 10
2.75
 20
23.299
 11
2.84244
 21
23.3482
  0
LINE
  8
0
 10
2.84244
 20
23.3482
 11
2.93809
 21
23.3908
  0
LINE
  8
0
 10
2.93809
 20
23.3908
 11
3.03647
 21
23.4266
  0
LINE
  8
0
 10
3.03647
 20
23.4266
 11
3.13712
 21
23.4554
  0
LINE
  8
0
 10
3.13712
 20
23.4554
 11
3.23953
 21
23.4772
  0
LINE
  8
0
 10
3.23953
 20
23.4772
 11
3.34321
 21
23.4918
  0
LINE
  8
0
 10
3.34321
 20
23.4918
 11
3.44765
 21
23.4991
  0
LINE
  8
0
 10
3.44765
 20
23.4991
 11
3.55235
 21
23.4991
  0
LINE
  8
0
 10
3.55235
 20
23.4991
 11
3.65679
 21
23.4918
  0
LINE
  8
0
 10
3.65679
 20
23.4918
 11
3.76047
 21
23.4772
  0
LINE
  8
0
 10
3.76047
 20
23.4772
 11
3.86288
 21
23.4554
  0
LINE
  8
0
 10
3.86288
 20
23.4554
 11
3.96352
 21
23.4266
  0
LINE
  8
0
 10
3.96352
 20
23.4266
 11
4.06191
 21
23.3908
  0
LINE
  8
0
 10
4.06191
 20
23.3908
 11
4.15756
 21
23.3482
  0
LINE
  8
0
 10
4.15756
 20
23.3482
 11
4.25
 21
23.299
  0
LINE
  8
0
 10
4.25
 20
23.299
 11
4.33879
 21
23.2436
  0
LINE
  8
0
 10
4.33879
 20
23.2436
 11
4.42349
 21
23.182
  0
LINE
  8
0
 10
4.42349
 20
23.182
 11
4.5037
 21
23.1147
  0
LINE
  8
0
 10
4.5037
 20
23.1147
 11
4.57901
 21
23.042
  0
LINE
  8
0
 10
4.57901
 20
23.042
 11
4.64907
 21
22.9642
  0
LINE
  8
0
 10
4.64907
 20
22.9642
 11
4.71352
 21
22.8817
  0
LINE
  8
0
 10
4.71352
 20
22.8817
 11
4.77207
 21
22.7949
  0
LINE
  8
0
 10
4.77207
 20
22.7949
 11
4.82442
 21
22.7042
  0
LINE
  8
0
 10
4.82442
 20
22.7042
 11
4.87032
 21
22.6101
  0
LINE
  8
0
 10
4.87032
 20
22.6101
 11
4.90954
 21
22.513
  0
LINE
  8
0
 10
4.90954
 20
22.513
 11
4.94189
 21
22.4135
  0
LINE
  8
0
 10
4.94189
 20
22.4135
 11
4.96722
 21
22.3119
  0
LINE
  8
0
 10
4.96722
 20
22.3119
 11
4.9854
 21
22.2088
  0
LINE
  8
0
 10
4.9854
 20
22.2088
 11
4.99635
 21
22.1046
  0
LINE
  8
0
 10
4.99635
 20
22.1046
 11
5
 21
22
  0
LINE
  8
0
 10
5
 20
22
 11
4.99635
 21
21.8954
  0
LINE
  8
0
 10
4.99635
 20
21.8954
 11
4.9854
 21
21.7912
  0
LINE
  8
0
 10
4.9854
 20
21.7912
 11
4.96722
 21
21.6881
  0
LINE
  8
0
 10
4.96722
 20
21.6881
 11
4.94189
 21
21.5865
  0
LINE
  8
0
 10
4.94189
 20
21.5865
 11
4.90954
 21
21.487
  0
LINE
  8
0
 10
4.90954
 20
21.487
 11
4.87032
 21
21.3899
  0
LINE
  8
0
 10
4.87032
 20
21.3899
 11
4.82442
 21
21.2958
  0
LINE
  8
0
 10
4.82442
 20
21.2958
 11
4.77207
 21
21.2051
  0
LINE
  8
0
 10
4.77207
 20
21.2051
 11
4.71352
 21
21.1183
  0
LINE
  8
0
 10
4.71352
 20
21.1183
 11
4.64907
 21
21.0358
  0
LINE
  8
0
 10
4.64907
 20
21.0358
 11
4.57901
 21
20.958
  0
LINE
  8
0
 10
4.57901
 20
20.958
 11
4.5037
 21
20.8853
  0
LINE
  8
0
 10
4.5037
 20
20.8853
 11
4.42349
 21
20.818
  0
LINE
  8
0
 10
4.42349
 20
20.818
 11
4.33879
 21
20.7564
  0
LINE
  8
0
 10
4.33879
 20
20.7564
 11
4.25
 21
20.701
  0
LINE
  8
0
 10
4.25
 20
20.701
 11
4.15756
 21
20.6518
  0
LINE
  8
0
 10
4.15756
 20
20.6518
 11
4.06191
 21
20.6092
  0
LINE
  8
0
 10
4.06191
 20
20.6092
 11
3.96352
 21
20.5734
  0
LINE
  8
0
 10
3.96352
 20
20.5734
 11
3.86288
 21
20.5446
  0
LINE
  8
0
 10
3.86288
 20
20.5446
 11
3.76047
 21
20.5228
  0
LINE
  8
0
 10
3.76047
 20
20.5228
 11
3.65679
 21
20.5082
  0
LINE
  8
0
 10
3.65679
 20
20.5082
 11
3.55235
 21
20.5009
  0
LINE
  8
0
 10
3.55235
 20
20.5009
 11
3.44765
 21
20.5009
  0
LINE
  8
0
 10
3.44765
 20
20.5009
 11
3.34321
 21
20.5082
  0
LINE
  8
0
 10
3.34321
 20
20.5082
 11
3.23953
 21
20.5228
  0
LINE
  8
0
 10
3.23953
 20
20.5228
 11
3.13712
 21
20.5446
  0
LINE
  8
0
 10
3.13712
 20
20.5446
 11
3.03647
 21
20.5734
  0
LINE
  8
0
 10
3.03647
 20
20.5734
 11
2.93809
 21
20.6092
  0
LINE
  8
0
 10
2.93809
 20
20.6092
 11
2.84244
 21
20.6518
  0
LINE
  8
0
 10
2.84244
 20
20.6518
 11
2.75
 21
20.701
  0
LINE
  8
0
 10
2.75
 20
20.701
 11
2.66121
 21
20.7564
  0
LINE
  8
0
 10
2.66121
 20
20.7564
 11
2.57651
 21
20.818
  0
LINE
  8
0
 10
2.57651
 20
20.818
 11
2.4963
 21
20.8853
  0
LINE
  8
0
 10
2.4963
 20
20.8853
 11
2.42099
 21
20.958
  0
LINE
  8
0
 10
2.42099
 20
20.958
 11
2.35093
 21
21.0358
  0
LINE
  8
0
 10
2.35093
 20
21.0358
 11
2.28647
 21
21.1183
  0
LINE
  8
0
 10
2.28647
 20
21.1183
 11
2.22793
 21
21.2051
  0
LINE
  8
0
 10
2.22793
 20
21.2051
 11
2.17558
 21
21.2958
  0
LINE
  8
0
 10
2.17558
 20
21.2958
 11
2.12968
 21
21.3899
  0
LINE
  8
0
 10
2.12968
 20
21.3899
 11
2.09046
 21
21.487
  0
LINE
  8
0
 10
2.09046
 20
21.487
 11
2.05811
 21
21.5865
  0
LINE
  8
0
 10
2.05811
 20
21.5865
 11
2.03278
 21
21.6881
  0
LINE
  8
0
 10
2.03278
 20
21.6881
 11
2.0146
 21
21.7912
  0
LINE
  8
0
 10
2.0146
 20
21.7912
 11
2.00365
 21
21.8954
  0
LINE
  8
0
 10
2.00365
 20
21.8954
 11
2
 21
22
  0
LINE
  8
0
 10
2
 20
71
 11
2.00365
 21
71.1046
  0
LINE
  8
0
 10
2.00365
 20
71.1046
 11
2.0146
 21
71.2088
  0
LINE
  8
0
 10
2.0146
 20
71.2088
 11
2.03278
 21
71.3119
  0
LINE
  8
0
 10
2.03278
 20
71.3119
 11
2.05811
 21
71.4135
  0
LINE
  8
0
 10
2.05811
 20
71.4135
 11
2.09046
 21
71.513
  0
LINE
  8
0
 10
2.09046
 20
71.513
 11
2.12968
 21
71.6101
  0
LINE
  8
0
 10
2.12968
 20
71.6101
 11
2.17558
 21
71.7042
  0
LINE
  8
0
 10
2.17558
 20
71.7042
 11
2.22793
 21
71.7949
  0
LINE
  8
0
 10
2.22793
 20
71.7949
 11
2.28647
 21
71.8817
  0
LINE
  8
0
 10
2.28647
 20
71.8817
 11
2.35093
 21
71.9642
  0
LINE
  8
0
 10
2.35093
 20
71.9642
 11
2.42099
 21
72.042
  0
LINE
  8
0
 10
2.42099
 20
72.042
 11
2.4963
 21
72.1147
  0
LINE
  8
0
 10
2.4963
 20
72.1147
 11
2.57651
 21
72.182
  0
LINE
  8
0
 10
2.57651
 20
72.182
 11
2.66121
 21
72.2436
  0
LINE
  8
0
 10
2.66121
 20
72.2436
 11
2.75
 21
72.299
  0
LINE
  8
0
 10
2.75
 20
72.299
 11
2.84244
 21
72.3482
  0
LINE
  8
0
 10
2.84244
 20
72.3482
 11
2.93809
 21
72.3908
  0
LINE
  8
0
 10
2.93809
 20
72.3908
 11
3.03647
 21
72.4266
  0
LINE
  8
0
 10
3.03647
 20
72.4266
 11
3.13712
 21
72.4554
  0
LINE
  8
0
 10
3.13712
 20
72.4554
 11
3.23953
 21
72.4772
  0
LINE
  8
0
 10
3.23953
 20
72.4772
 11
3.34321
 21
72.4918
  0
LINE
  8
0
 10
3.34321
 20
72.4918
 11
3.44765
 21
72.4991
  0
LINE
  8
0
 10
3.44765
 20
72.4991
 11
3.55235
 21
72.4991
  0
LINE
  8
0
 10
3.55235
 20
72.4991
 11
3.65679
 21
72.4918
  0
LINE
  8
0
 10
3.65679
 20
72.4918
 11
3.76047
 21
72.4772
  0
LINE
  8
0
 10
3.76047
 20
72.4772
 11
3.86288
 21
72.4554
  0
LINE
  8
0
 10
3.86288
 20
72.4554
 11
3.96352
 21
72.4266
  0
LINE
  8
0
 10
3.96352
 20
72.4266
 11
4.06191
 21
72.3908
  0
LINE
  8
0
 10
4.06191
 20
72.3908
 11
4.15756
 21
72.3482
  0
LINE
  8
0
 10
4.15756
 20
72.3482
 11
4.25
 21
72.299
  0
LINE
  8
0
 10
4.25
 20
72.299
 11
4.33879
 21
72.2436
  0
LINE
  8
0
 10
4.33879
 20
72.2436
 11
4.42349
 21
72.182
  0
LINE
  8
0
 10
4.42349
 20
72.182
 11
4.5037
 21
72.1147
  0
LINE
  8
0
 10
4.5037
 20
72.1147
 11
4.57901
 21
72.042
  0
LINE
  8
0
 10
4.57901
 20
72.042
 11
4.64907
 21
71.9642
  0
LINE
  8
0
 10
4.64907
 20
71.9642
 11
4.71352
 21
71.8817
  0
LINE
  8
0
 10
4.71352
 20
71.8817
 11
4.77207
 21
71.7949
  0
LINE
  8
0
 10
4.77207
 20
71.7949
 11
4.82442
 21
71.7042
  0
LINE
  8
0
 10
4.82442
 20
71.7042
 11
4.87032
 21
71.6101
  0
LINE
  8
0
 10
4.87032
 20
71.6101
 11
4.90954
 21
71.513
  0
LINE
  8
0
 10
4.90954
 20
71.513
 11
4.94189
 21
71.4135
  0
LINE
  8
0
 10
4.94189
 20
71.4135
 11
4.96722
 21
71.3119
  0
LINE
  8
0
 10
4.96722
 20
71.3119
 11
4.9854
 21
71.2088
  0
LINE
  8
0
 10
4.9854
 20
71.2088
 11
4.99635
 21
71.1046
  0
LINE
  8
0
 10
4.99635
 20
71.1046
 11
5
 21
71
  0
LINE
  8
0
 10
5
 20
71
 11
4.99635
 21
70.8954
  0
LINE
  8
0
 10
4.99635
 20
70.8954
 11
4.9854
 21
70.7912
  0
LINE
  8
0
 10
4.9854
 20
70.7912
 11
4.96722
 21
70.6881
  0
LINE
  8
0
 10
4.96722
 20
70.6881
 11
4.94189
 21
70.5865
  0
LINE
  8
0
 10
4.94189
 20
70.5865
 11
4.90954
 21
70.487
  0
LINE
  8
0
 10
4.90954
 20
70.487
 11
4.87032
 21
70.3899
  0
LINE
  8
0
 10
4.87032
 20
70.3899
 11
4.82442
 21
70.2958
  0
LINE
  8
0
 10
4.82442
 20
70.2958
 11
4.77207
 21
70.2051
  0
LINE
  8
0
 10
4.77207
 20
70.2051
 11
4.71352
 21
70.1183
  0
LINE
  8
0
 10
4.71352
 20
70.1183
 11
4.64907
 21
70.0358
  0
LINE
  8
0
 10
4.64907
 20
70.0358
 11
4.57901
 21
69.958
  0
LINE
  8
0
 10
4.57901
 20
69.958
 11
4.5037
 21
69.8853
  0
LINE
  8
0
 10
4.5037
 20
69.8853
 11
4.42349
 21
69.818
  0
LINE
  8
0
 10
4.42349
 20
69.818
 11
4.33879
 21
69.7564
  0
LINE
  8
0
 10
4.33879
 20
69.7564
 11
4.25
 21
69.701
  0
LINE
  8
0
 10
4.25
 20
69.701
 11
4.15756
 21
69.6518
  0
LINE
  8
0
 10
4.15756
 20
69.6518
 11
4.06191
 21
69.6092
  0
LINE
  8
0
 10
4.06191
 20
69.6092
 11
3.96352
 21
69.5734
  0
LINE
  8
0
 10
3.96352
 20
69.5734
 11
3.86288
 21
69.5446
  0
LINE
  8
0
 10
3.86288
 20
69.5446
 11
3.76047
 21
69.5228
  0
LINE
  8
0
 10
3.76047
 20
69.5228
 11
3.65679
 21
69.5082
  0
LINE
  8
0
 10
3.65679
 20
69.5082
 11
3.55235
 21
69.5009
  0
LINE
  8
0
 10
3.55235
 20
69.5009
 11
3.44765
 21
69.5009
  0
LINE
  8
0
 10
3.44765
 20
69.5009
 11
3.34321
 21
69.5082
  0
LINE
  8
0
 10
3.34321
 20
69.5082
 11
3.23953
 21
69.5228
  0
LINE
  8
0
 10
3.23953
 20
69.5228
 11
3.13712
 21
69.5446
  0
LINE
  8
0
 10
3.13712
 20
69.5446
 11
3.03647
 21
69.5734
  0
LINE
  8
0
 10
3.03647
 20
69.5734
 11
2.93809
 21
69.6092
  0
LINE
  8
0
 10
2.93809
 20
69.6092
 11
2.84244
 21
69.6518
  0
LINE
  8
0
 10
2.84244
 20
69.6518
 11
2.75
 21
69.701
  0
LINE
  8
0
 10
2.75
 20
69.701
 11
2.66121
 21
69.7564
  0
LINE
  8
0
 10
2.66121
 20
69.7564
 11
2.57651
 21
69.818
  0
LINE
  8
0
 10
2.57651
 20
69.818
 11
2.4963
 21
69.8853
  0
LINE
  8
0
 10
2.4963
 20
69.8853
 11
2.42099
 21
69.958
  0
LINE
  8
0
 10
2.42099
 20
69.958
 11
2.35093
 21
70.0358
  0
LINE
  8
0
 10
2.35093
 20
70.0358
 11
2.28647
 21
70.1183
  0
LINE
  8
0
 10
2.28647
 20
70.1183
 11
2.22793
 21
70.2051
  0
LINE
  8
0
 10
2.22793
 20
70.2051
 11
2.17558
 21
70.2958
  0
LINE
  8
0
 10
2.17558
 20
70.2958
 11
2.12968
 21
70.3899
  0
LINE
  8
0
 10
2.12968
 20
70.3899
 11
2.09046
 21
70.487
  0
LINE
  8
0
 10
2.09046
 20
70.487
 11
2.05811
 21
70.5865
  0
LINE
  8
0
 10
2.05811
 20
70.5865
 11
2.03278
 21
70.6881
  0
LINE
  8
0
 10
2.03278
 20
70.6881
 11
2.0146
 21
70.7912
  0
LINE
  8
0
 10
2.0146
 20
70.7912
 11
2.00365
 21
70.8954
  0
LINE
  8
0
 10
2.00365
 20
70.8954
 11
2
 21
71
  0
LINE
  8
0
 10
21.25
 20
51.5
 11
21.2537
 21
51.6046
  0
LINE
  8
0
 10
21.2537
 20
51.6046
 11
21.2646
 21
51.7088
  0
LINE
  8
0
 10
21.2646
 20
51.7088
 11
21.2828
 21
51.8119
  0
LINE
  8
0
 10
21.2828
 20
51.8119
 11
21.3081
 21
51.9135
  0
LINE
  8
0
 10
21.3081
 20
51.9135
 11
21.3405
 21
52.013
  0
LINE
  8
0
 10
21.3405
 20
52.013
 11
21.3797
 21
52.1101
  0
LINE
  8
0
 10
21.3797
 20
52.1101
 11
21.4256
 21
52.2042
  0
LINE
  8
0
 10
21.4256
 20
52.2042
 11
21.4779
 21
52.2949
  0
LINE
  8
0
 10
21.4779
 20
52.2949
 11
21.5365
 21
52.3817
  0
LINE
  8
0
 10
21.5365
 20
52.3817
 11
21.6009
 21
52.4642
  0
LINE
  8
0
 10
21.6009
 20
52.4642
 11
21.671
 21
52.542
  0
LINE
  8
0
 10
21.671
 20
52.542
 11
21.7463
 21
52.6147
  0
LINE
  8
0
 10
21.7463
 20
52.6147
 11
21.8265
 21
52.682
  0
LINE
  8
0
 10
21.8265
 20
52.682
 11
21.9112
 21
52.7436
  0
LINE
  8
0
 10
21.9112
 20
52.7436
 11
22
 21
52.799
  0
LINE
  8
0
 10
22
 20
52.799
 11
22.0924
 21
52.8482
  0
LINE
  8
0
 10
22.0924
 20
52.8482
 11
22.1881
 21
52.8908
  0
LINE
  8
0
 10
22.1881
 20
52.8908
 11
22.2865
 21
52.9266
  0
LINE
  8
0
 10
22.2865
 20
52.9266
 11
22.3871
 21
52.9554
  0
LINE
  8
0
 10
22.3871
 20
52.9554
 11
22.4895
 21
52.9772
  0
LINE
  8
0
 10
22.4895
 20
52.9772
 11
22.5932
 21
52.9918
  0
LINE
  8
0
 10
22.5932
 20
52.9918
 11
22.6977
 21
52.9991
  0
LINE
  8
0
 10
22.6977
 20
52.9991
 11
22.8023
 21
52.9991
  0
LINE
  8
0
 10
22.8023
 20
52.9991
 11
22.9068
 21
52.9918
  0
LINE
  8
0
 10
22.9068
 20
52.9918
 11
23.0105
 21
52.9772
  0
LINE
  8
0
 10
23.0105
 20
52.9772
 11
23.1129
 21
52.9554
  0
LINE
  8
0
 10
23.1129
 20
52.9554
 11
23.2135
 21
52.9266
  0
LINE
  8
0
 10
23.2135
 20
52.9266
 11
23.3119
 21
52.8908
  0
LINE
  8
0
 10
23.3119
 20
52.8908
 11
23.4076
 21
52.8482
  0
LINE
  8
0
 10
23.4076
 20
52.8482
 11
23.5
 21
52.799
  0
LINE
  8
0
 10
23.5
 20
52.799
 11
23.5888
 21
52.7436
  0
LINE
  8
0
 10
23.5888
 20
52.7436
 11
23.6735
 21
52.682
  0
LINE
  8
0
 10
23.6735
 20
52.682
 11
23.7537
 21
52.6147
  0
LINE
  8
0
 10
23.7537
 20
52.6147
 11
23.829
 21
52.542
  0
LINE
  8
0
 10
23.829
 20
52.542
 11
23.8991
 21
52.4642
  0
LINE
  8
0
 10
23.8991
 20
52.4642
 11
23.9635
 21
52.3817
  0
LINE
  8
0
 10
23.9635
 20
52.3817
 11
24.0221
 21
52.2949
  0
LINE
  8
0
 10
24.0221
 20
52.2949
 11
24.0744
 21
52.2042
  0
LINE
  8
0
 10
24.0744
 20
52.2042
 11
24.1203
 21
52.1101
  0
LINE
  8
0
 10
24.1203
 20
52.1101
 11
24.1595
 21
52.013
  0
LINE
  8
0
 10
24.1595
 20
52.013
 11
24.1919
 21
51.9135
  0
LINE
  8
0
 10
24.1919
 20
51.9135
 11
24.2172
 21
51.8119
  0
LINE
  8
0
 10
24.2172
 20
51.8119
 11
24.2354
 21
51.7088
  0
LINE
  8
0
 10
24.2354
 20
51.7088
 11
24.2463
 21
51.6046
  0
LINE
  8
0
 10
24.2463
 20
51.6046
 11
24.25
 21
51.5
  0
LINE
  8
0
 10
24.25
 20
51.5
 11
24.2463
 21
51.3954
  0
LINE
  8
0
 10
24.2463
 20
51.3954
 11
24.2354
 21
51.2912
  0
LINE
  8
0
 10
24.2354
 20
51.2912
 11
24.2172
 21
51.1881
  0
LINE
  8
0
 10
24.2172
 20
51.1881
 11
24.1919
 21
51.0865
  0
LINE
  8
0
 10
24.1919
 20
51.0865
 11
24.1595
 21
50.987
  0
LINE
  8
0
 10
24.1595
 20
50.987
 11
24.1203
 21
50.8899
  0
LINE
  8
0
 10
24.1203
 20
50.8899
 11
24.0744
 21
50.7958
  0
LINE
  8
0
 10
24.0744
 20
50.7958
 11
24.0221
 21
50.7051
  0
LINE
  8
0
 10
24.0221
 20
50.7051
 11
23.9635
 21
50.6183
  0
LINE
  8
0
 10
23.9635
 20
50.6183
 11
23.8991
 21
50.5358
  0
LINE
  8
0
 10
23.8991
 20
50.5358
 11
23.829
 21
50.458
  0
LINE
  8
0
 10
23.829
 20
50.458
 11
23.7537
 21
50.3853
  0
LINE
  8
0
 10
23.7537
 20
50.3853
 11
23.6735
 21
50.318
  0
LINE
  8
0
 10
23.6735
 20
50.318
 11
23.5888
 21
50.2564
  0
LINE
  8
0
 10
23.5888
 20
50.2564
 11
23.5
 21
50.201
  0
LINE
  8
0
 10
23.5
 20
50.201
 11
23.4076
 21
50.1518
  0
LINE
  8
0
 10
23.4076
 20
50.1518
 11
23.3119
 21
50.1092
  0
LINE
  8
0
 10
23.3119
 20
50.1092
 11
23.2135
 21
50.0734
  0
LINE
  8
0
 10
23.2135
 20
50.0734
 11
23.1129
 21
50.0446
  0
LINE
  8
0
 10
23.1129
 20
50.0446
 11
23.0105
 21
50.0228
  0
LINE
  8
0
 10
23.0105
 20
50.0228
 11
22.9068
 21
50.0082
  0
LINE
  8
0
 10
22.9068
 20
50.0082
 11
22.8023
 21
50.0009
  0
LINE
  8
0
 10
22.8023
 20
50.0009
 11
22.6977
 21
50.0009
  0
LINE
  8
0
 10
22.6977
 20
50.0009
 11
22.5932
 21
50.0082
  0
LINE
  8
0
 10
22.5932
 20
50.0082
 11
22.4895
 21
50.0228
  0
LINE
  8
0
 10
22.4895
 20
50.0228
 11
22.3871
 21
50.0446
  0
LINE
  8
0
 10
22.3871
 20
50.0446
 11
22.2865
 21
50.0734
  0
LINE
  8
0
 10
22.2865
 20
50.0734
 11
22.1881
 21
50.1092
  0
LINE
  8
0
 10
22.1881
 20
50.1092
 11
22.0924
 21
50.1518
  0
LINE
  8
0
 10
22.0924
 20
50.1518
 11
22
 21
50.201
  0
LINE
  8
0
 10
22
 20
50.201
 11
21.9112
 21
50.2564
  0
LINE
  8
0
 10
21.9112
 20
50.2564
 11
21.8265
 21
50.318
  0
LINE
  8
0
 10
21.8265
 20
50.318
 11
21.7463
 21
50.3853
  0
LINE
  8
0
 10
21.7463
 20
50.3853
 11
21.671
 21
50.458
  0
LINE
  8
0
 10
21.671
 20
50.458
 11
21.6009
 21
50.5358
  0
LINE
  8
0
 10
21.6009
 20
50.5358
 11
21.5365
 21
50.6183
  0
LINE
  8
0
 10
21.5365
 20
50.6183
 11
21.4779
 21
50.7051
  0
LINE
  8
0
 10
21.4779
 20
50.7051
 11
21.4256
 21
50.7958
  0
LINE
  8
0
 10
21.4256
 20
50.7958
 11
21.3797
 21
50.8899
  0
LINE
  8
0
 10
21.3797
 20
50.8899
 11
21.3405
 21
50.987
  0
LINE
  8
0
 10
21.3405
 20
50.987
 11
21.3081
 21
51.0865
  0
LINE
  8
0
 10
21.3081
 20
51.0865
 11
21.2828
 21
51.1881
  0
LINE
  8
0
 10
21.2828
 20
51.1881
 11
21.2646
 21
51.2912
  0
LINE
  8
0
 10
21.2646
 20
51.2912
 11
21.2537
 21
51.3954
  0
LINE
  8
0
 10
21.2537
 20
51.3954
 11
21.25
 21
51.5
  0
LINE
  8
0
 10
72.25
 20
31.5
 11
72.2537
 21
31.6046
  0
LINE
  8
0
 10
72.2537
 20
31.6046
 11
72.2646
 21
31.7088
  0
LINE
  8
0
 10
72.2646
 20
31.7088
 11
72.2828
 21
31.8119
  0
LINE
  8
0
 10
72.2828
 20
31.8119
 11
72.3081
 21
31.9135
  0
LINE
  8
0
 10
72.3081
 20
31.9135
 11
72.3405
 21
32.013
  0
LINE
  8
0
 10
72.3405
 20
32.013
 11
72.3797
 21
32.1101
  0
LINE
  8
0
 10
72.3797
 20
32.1101
 11
72.4256
 21
32.2042
  0
LINE
  8
0
 10
72.4256
 20
32.2042
 11
72.4779
 21
32.2949
  0
LINE
  8
0
 10
72.4779
 20
32.2949
 11
72.5365
 21
32.3817
  0
LINE
  8
0
 10
72.5365
 20
32.3817
 11
72.6009
 21
32.4642
  0
LINE
  8
0
 10
72.6009
 20
32.4642
 11
72.671
 21
32.542
  0
LINE
  8
0
 10
72.671
 20
32.542
 11
72.7463
 21
32.6147
  0
LINE
  8
0
 10
72.7463
 20
32.6147
 11
72.8265
 21
32.682
  0
LINE
  8
0
 10
72.8265
 20
32.682
 11
72.9112
 21
32.7436
  0
LINE
  8
0
 10
72.9112
 20
32.7436
 11
73
 21
32.799
  0
LINE
  8
0
 10
73
 20
32.799
 11
73.0924
 21
32.8482
  0
LINE
  8
0
 10
73.0924
 20
32.8482
 11
73.1881
 21
32.8908
  0
LINE
  8
0
 10
73.1881
 20
32.8908
 11
73.2865
 21
32.9266
  0
LINE
  8
0
 10
73.2865
 20
32.9266
 11
73.3871
 21
32.9554
  0
LINE
  8
0
 10
73.3871
 20
32.9554
 11
73.4895
 21
32.9772
  0
LINE
  8
0
 10
73.4895
 20
32.9772
 11
73.5932
 21
32.9918
  0
LINE
  8
0
 10
73.5932
 20
32.9918
 11
73.6976
 21
32.9991
  0
LINE
  8
0
 10
73.6976
 20
32.9991
 11
73.8024
 21
32.9991
  0
LINE
  8
0
 10
73.8024
 20
32.9991
 11
73.9068
 21
32.9918
  0
LINE
  8
0
 10
73.9068
 20
32.9918
 11
74.0105
 21
32.9772
  0
LINE
  8
0
 10
74.0105
 20
32.9772
 11
74.1129
 21
32.9554
  0
LINE
  8
0
 10
74.1129
 20
32.9554
 11
74.2135
 21
32.9266
  0
LINE
  8
0
 10
74.2135
 20
32.9266
 11
74.3119
 21
32.8908
  0
LINE
  8
0
 10
74.3119
 20
32.8908
 11
74.4076
 21
32.8482
  0
LINE
  8
0
 10
74.4076
 20
32.8482
 11
74.5
 21
32.799
  0
LINE
  8
0
 10
74.5
 20
32.799
 11
74.5888
 21
32.7436
  0
LINE
  8
0
 10
74.5888
 20
32.7436
 11
74.6735
 21
32.682
  0
LINE
  8
0
 10
74.6735
 20
32.682
 11
74.7537
 21
32.6147
  0
LINE
  8
0
 10
74.7537
 20
32.6147
 11
74.829
 21
32.542
  0
LINE
  8
0
 10
74.829
 20
32.542
 11
74.8991
 21
32.4642
  0
LINE
  8
0
 10
74.8991
 20
32.4642
 11
74.9635
 21
32.3817
  0
LINE
  8
0
 10
74.9635
 20
32.3817
 11
75.0221
 21
32.2949
  0
LINE
  8
0
 10
75.0221
 20
32.2949
 11
75.0744
 21
32.2042
  0
LINE
  8
0
 10
75.0744
 20
32.2042
 11
75.1203
 21
32.1101
  0
LINE
  8
0
 10
75.1203
 20
32.1101
 11
75.1595
 21
32.013
  0
LINE
  8
0
 10
75.1595
 20
32.013
 11
75.1919
 21
31.9135
  0
LINE
  8
0
 10
75.1919
 20
31.9135
 11
75.2172
 21
31.8119
  0
LINE
  8
0
 10
75.2172
 20
31.8119
 11
75.2354
 21
31.7088
  0
LINE
  8
0
 10
75.2354
 20
31.7088
 11
75.2463
 21
31.6046
  0
LINE
  8
0
 10
75.2463
 20
31.6046
 11
75.25
 21
31.5
  0
LINE
  8
0
 10
75.25
 20
31.5
 11
75.2463
 21
31.3954
  0
LINE
  8
0
 10
75.2463
 20
31.3954
 11
75.2354
 21
31.2912
  0
LINE
  8
0
 10
75.2354
 20
31.2912
 11
75.2172
 21
31.1881
  0
LINE
  8
0
 10
75.2172
 20
31.1881
 11
75.1919
 21
31.0865
  0
LINE
  8
0
 10
75.1919
 20
31.0865
 11
75.1595
 21
30.987
  0
LINE
  8
0
 10
75.1595
 20
30.987
 11
75.1203
 21
30.8899
  0
LINE
  8
0
 10
75.1203
 20
30.8899
 11
75.0744
 21
30.7958
  0
LINE
  8
0
 10
75.0744
 20
30.7958
 11
75.0221
 21
30.7051
  0
LINE
  8
0
 10
75.0221
 20
30.7051
 11
74.9635
 21
30.6183
  0
LINE
  8
0
 10
74.9635
 20
30.6183
 11
74.8991
 21
30.5358
  0
LINE
  8
0
 10
74.8991
 20
30.5358
 11
74.829
 21
30.458
  0
LINE
  8
0
 10
74.829
 20
30.458
 11
74.7537
 21
30.3853
  0
LINE
  8
0
 10
74.7537
 20
30.3853
 11
74.6735
 21
30.318
  0
LINE
  8
0
 10
74.6735
 20
30.318
 11
74.5888
 21
30.2564
  0
LINE
  8
0
 10
74.5888
 20
30.2564
 11
74.5
 21
30.201
  0
LINE
  8
0
 10
74.5
 20
30.201
 11
74.4076
 21
30.1518
  0
LINE
  8
0
 10
74.4076
 20
30.1518
 11
74.3119
 21
30.1092
  0
LINE
  8
0
 10
74.3119
 20
30.1092
 11
74.2135
 21
30.0734
  0
LINE
  8
0
 10
74.2135
 20
30.0734
 11
74.1129
 21
30.0446
  0
LINE
  8
0
 10
74.1129
 20
30.0446
 11
74.0105
 21
30.0228
  0
LINE
  8
0
 10
74.0105
 20
30.0228
 11
73.9068
 21
30.0082
  0
LINE
  8
0
 10
73.9068
 20
30.0082
 11
73.8024
 21
30.0009
  0
LINE
  8
0
 10
73.8024
 20
30.0009
 11
73.6976
 21
30.0009
  0
LINE
  8
0
 10
73.6976
 20
30.0009
 11
73.5932
 21
30.0082
  0
LINE
  8
0
 10
73.5932
 20
30.0082
 11
73.4895
 21
30.0228
  0
LINE
  8
0
 10
73.4895
 20
30.0228
 11
73.3871
 21
30.0446
  0
LINE
  8
0
 10
73.3871
 20
30.0446
 11
73.2865
 21
30.0734
  0
LINE
  8
0
 10
73.2865
 20
30.0734
 11
73.1881
 21
30.1092
  0
LINE
  8
0
 10
73.1881
 20
30.1092
 11
73.0924
 21
30.1518
  0
LINE
  8
0
 10
73.0924
 20
30.1518
 11
73
 21
30.201
  0
LINE
  8
0
 10
73
 20
30.201
 11
72.9112
 21
30.2564
  0
LINE
  8
0
 10
72.9112
 20
30.2564
 11
72.8265
 21
30.318
  0
LINE
  8
0
 10
72.8265
 20
30.318
 11
72.7463
 21
30.3853
  0
LINE
  8
0
 10
72.7463
 20
30.3853
 11
72.671
 21
30.458
  0
LINE
  8
0
 10
72.671
 20
30.458
 11
72.6009
 21
30.5358
  0
LINE
  8
0
 10
72.6009
 20
30.5358
 11
72.5365
 21
30.6183
  0
LINE
  8
0
 10
72.5365
 20
30.6183
 11
72.4779
 21
30.7051
  0
LINE
  8
0
 10
72.4779
 20
30.7051
 11
72.4256
 21
30.7958
  0
LINE
  8
0
 10
72.4256
 20
30.7958
 11
72.3797
 21
30.8899
  0
LINE
  8
0
 10
72.3797
 20
30.8899
 11
72.3405
 21
30.987
  0
LINE
  8
0
 10
72.3405
 20
30.987
 11
72.3081
 21
31.0865
  0
LINE
  8
0
 10
72.3081
 20
31.0865
 11
72.2828
 21
31.1881
  0
LINE
  8
0
 10
72.2828
 20
31.1881
 11
72.2646
 21
31.2912
  0
LINE
  8
0
 10
72.2646
 20
31.2912
 11
72.2537
 21
31.3954
  0
LINE
  8
0
 10
72.2537
 20
31.3954
 11
72.25
 21
31.5
  0
LINE
  8
0
 10
94.75
 20
22
 11
94.7543
 21
22.1221
  0
LINE
  8
0
 10
94.7543
 20
22.1221
 11
94.767
 21
22.2436
  0
LINE
  8
0
 10
94.767
 20
22.2436
 11
94.7882
 21
22.3638
  0
LINE
  8
0
 10
94.7882
 20
22.3638
 11
94.8178
 21
22.4824
  0
LINE
  8
0
 10
94.8178
 20
22.4824
 11
94.8555
 21
22.5985
  0
LINE
  8
0
 10
94.8555
 20
22.5985
 11
94.9013
 21
22.7118
  0
LINE
  8
0
 10
94.9013
 20
22.7118
 11
94.9548
 21
22.8216
  0
LINE
  8
0
 10
94.9548
 20
22.8216
 11
95.0159
 21
22.9274
  0
LINE
  8
0
 10
95.0159
 20
22.9274
 11
95.0842
 21
23.0286
  0
LINE
  8
0
 10
95.0842
 20
23.0286
 11
95.1594
 21
23.1249
  0
LINE
  8
0
 10
95.1594
 20
23.1249
 11
95.2412
 21
23.2157
  0
LINE
  8
0
 10
95.2412
 20
23.2157
 11
95.329
 21
23.3005
  0
LINE
  8
0
 10
95.329
 20
23.3005
 11
95.4226
 21
23.379
  0
LINE
  8
0
 10
95.4226
 20
23.379
 11
95.5214
 21
23.4508
  0
LINE
  8
0
 10
95.5214
 20
23.4508
 11
95.625
 21
23.5155
  0
LINE
  8
0
 10
95.625
 20
23.5155
 11
95.7328
 21
23.5729
  0
LINE
  8
0
 10
95.7328
 20
23.5729
 11
95.8444
 21
23.6226
  0
LINE
  8
0
 10
95.8444
 20
23.6226
 11
95.9592
 21
23.6643
  0
LINE
  8
0
 10
95.9592
 20
23.6643
 11
96.0766
 21
23.698
  0
LINE
  8
0
 10
96.0766
 20
23.698
 11
96.1961
 21
23.7234
  0
LINE
  8
0
 10
96.1961
 20
23.7234
 11
96.3171
 21
23.7404
  0
LINE
  8
0
 10
96.3171
 20
23.7404
 11
96.4389
 21
23.7489
  0
LINE
  8
0
 10
96.4389
 20
23.7489
 11
96.5611
 21
23.7489
  0
LINE
  8
0
 10
96.5611
 20
23.7489
 11
96.6829
 21
23.7404
  0
LINE
  8
0
 10
96.6829
 20
23.7404
 11
96.8039
 21
23.7234
  0
LINE
  8
0
 10
96.8039
 20
23.7234
 11
96.9234
 21
23.698
  0
LINE
  8
0
 10
96.9234
 20
23.698
 11
97.0408
 21
23.6643
  0
LINE
  8
0
 10
97.0408
 20
23.6643
 11
97.1556
 21
23.6226
  0
LINE
  8
0
 10
97.1556
 20
23.6226
 11
97.2672
 21
23.5729
  0
LINE
  8
0
 10
97.2672
 20
23.5729
 11
97.375
 21
23.5155
  0
LINE
  8
0
 10
97.375
 20
23.5155
 11
97.4786
 21
23.4508
  0
LINE
  8
0
 10
97.4786
 20
23.4508
 11
97.5774
 21
23.379
  0
LINE
  8
0
 10
97.5774
 20
23.379
 11
97.671
 21
23.3005
  0
LINE
  8
0
 10
97.671
 20
23.3005
 11
97.7588
 21
23.2157
  0
LINE
  8
0
 10
97.7588
 20
23.2157
 11
97.8406
 21
23.1249
  0
LINE
  8
0
 10
97.8406
 20
23.1249
 11
97.9158
 21
23.0286
  0
LINE
  8
0
 10
97.9158
 20
23.0286
 11
97.9841
 21
22.9274
  0
LINE
  8
0
 10
97.9841
 20
22.9274
 11
98.0452
 21
22.8216
  0
LINE
  8
0
 10
98.0452
 20
22.8216
 11
98.0987
 21
22.7118
  0
LINE
  8
0
 10
98.0987
 20
22.7118
 11
98.1445
 21
22.5985
  0
LINE
  8
0
 10
98.1445
 20
22.5985
 11
98.1822
 21
22.4824
  0
LINE
  8
0
 10
98.1822
 20
22.4824
 11
98.2118
 21
22.3638
  0
LINE
  8
0
 10
98.2118
 20
22.3638
 11
98.233
 21
22.2436
  0
LINE
  8
0
 10
98.233
 20
22.2436
 11
98.2457
 21
22.1221
  0
LINE
  8
0
 10
98.2457
 20
22.1221
 11
98.25
 21
22
  0
LINE
  8
0
 10
98.25
 20
22
 11
98.2457
 21
21.8779
  0
LINE
  8
0
 10
98.2457
 20
21.8779
 11
98.233
 21
21.7564
  0
LINE
  8
0
 10
98.233
 20
21.7564
 11
98.2118
 21
21.6362
  0
LINE
  8
0
 10
98.2118
 20
21.6362
 11
98.1822
 21
21.5176
  0
LINE
  8
0
 10
98.1822
 20
21.5176
 11
98.1445
 21
21.4015
  0
LINE
  8
0
 10
98.1445
 20
21.4015
 11
98.0987
 21
21.2882
  0
LINE
  8
0
 10
98.0987
 20
21.2882
 11
98.0452
 21
21.1784
  0
LINE
  8
0
 10
98.0452
 20
21.1784
 11
97.9841
 21
21.0726
  0
LINE
  8
0
 10
97.9841
 20
21.0726
 11
97.9158
 21
20.9714
  0
LINE
  8
0
 10
97.9158
 20
20.9714
 11
97.8406
 21
20.8751
  0
LINE
  8
0
 10
97.8406
 20
20.8751
 11
97.7588
 21
20.7843
  0
LINE
  8
0
 10
97.7588
 20
20.7843
 11
97.671
 21
20.6995
  0
LINE
  8
0
 10
97.671
 20
20.6995
 11
97.5774
 21
20.621
  0
LINE
  8
0
 10
97.5774
 20
20.621
 11
97.4786
 21
20.5492
  0
LINE
  8
0
 10
97.4786
 20
20.5492
 11
97.375
 21
20.4845
  0
LINE
  8
0
 10
97.375
 20
20.4845
 11
97.2672
 21
20.4271
  0
LINE
  8
0
 10
97.2672
 20
20.4271
 11
97.1556
 21
20.3774
  0
LINE
  8
0
 10
97.1556
 20
20.3774
 11
97.0408
 21
20.3357
  0
LINE
  8
0
 10
97.0408
 20
20.3357
 11
96.9234
 21
20.302
  0
LINE
  8
0
 10
96.9234
 20
20.302
 11
96.8039
 21
20.2766
  0
LINE
  8
0
 10
96.8039
 20
20.2766
 11
96.6829
 21
20.2596
  0
LINE
  8
0
 10
96.6829
 20
20.2596
 11
96.5611
 21
20.2511
  0
LINE
  8
0
 10
96.5611
 20
20.2511
 11
96.4389
 21
20.2511
  0
LINE
  8
0
 10
96.4389
 20
20.2511
 11
96.3171
 21
20.2596
  0
LINE
  8
0
 10
96.3171
 20
20.2596
 11
96.1961
 21
20.2766
  0
LINE
  8
0
 10
96.1961
 20
20.2766
 11
96.0766
 21
20.302
  0
LINE
  8
0
 10
96.0766
 20
20.302
 11
95.9592
 21
20.3357
  0
LINE
  8
0
 10
95.9592
 20
20.3357
 11
95.8444
 21
20.3774
  0
LINE
  8
0
 10
95.8444
 20
20.3774
 11
95.7328
 21
20.4271
  0
LINE
  8
0
 10
95.7328
 20
20.4271
 11
95.625
 21
20.4845
  0
LINE
  8
0
 10
95.625
 20
20.4845
 11
95.5214
 21
20.5492
  0
LINE
  8
0
 10
95.5214
 20
20.5492
 11
95.4226
 21
20.621
  0
LINE
  8
0
 10
95.4226
 20
20.621
 11
95.329
 21
20.6995
  0
LINE
  8
0
 10
95.329
 20
20.6995
 11
95.2412
 21
20.7843
  0
LINE
  8
0
 10
95.2412
 20
20.7843
 11
95.1594
 21
20.8751
  0
LINE
  8
0
 10
95.1594
 20
20.8751
 11
95.0842
 21
20.9714
  0
LINE
  8
0
 10
95.0842
 20
20.9714
 11
95.0159
 21
21.0726
  0
LINE
  8
0
 10
95.0159
 20
21.0726
 11
94.9548
 21
21.1784
  0
LINE
  8
0
 10
94.9548
 20
21.1784
 11
94.9013
 21
21.2882
  0
LINE
  8
0
 10
94.9013
 20
21.2882
 11
94.8555
 21
21.4015
  0
LINE
  8
0
 10
94.8555
 20
21.4015
 11
94.8178
 21
21.5176
  0
LINE
  8
0
 10
94.8178
 20
21.5176
 11
94.7882
 21
21.6362
  0
LINE
  8
0
 10
94.7882
 20
21.6362
 11
94.767
 21
21.7564
  0
LINE
  8
0
 10
94.767
 20
21.7564
 11
94.7543
 21
21.8779
  0
LINE
  8
0
 10
94.7543
 20
21.8779
 11
94.75
 21
22
  0
LINE
  8
0
 10
95
 20
71
 11
95.0037
 21
71.1046
  0
LINE
  8
0
 10
95.0037
 20
71.1046
 11
95.0146
 21
71.2088
  0
LINE
  8
0
 10
95.0146
 20
71.2088
 11
95.0328
 21
71.3119
  0
LINE
  8
0
 10
95.0328
 20
71.3119
 11
95.0581
 21
71.4135
  0
LINE
  8
0
 10
95.0581
 20
71.4135
 11
95.0905
 21
71.513
  0
LINE
  8
0
 10
95.0905
 20
71.513
 11
95.1297
 21
71.6101
  0
LINE
  8
0
 10
95.1297
 20
71.6101
 11
95.1756
 21
71.7042
  0
LINE
  8
0
 10
95.1756
 20
71.7042
 11
95.2279
 21
71.7949
  0
LINE
  8
0
 10
95.2279
 20
71.7949
 11
95.2865
 21
71.8817
  0
LINE
  8
0
 10
95.2865
 20
71.8817
 11
95.3509
 21
71.9642
  0
LINE
  8
0
 10
95.3509
 20
71.9642
 11
95.421
 21
72.042
  0
LINE
  8
0
 10
95.421
 20
72.042
 11
95.4963
 21
72.1147
  0
LINE
  8
0
 10
95.4963
 20
72.1147
 11
95.5765
 21
72.182
  0
LINE
  8
0
 10
95.5765
 20
72.182
 11
95.6612
 21
72.2436
  0
LINE
  8
0
 10
95.6612
 20
72.2436
 11
95.75
 21
72.299
  0
LINE
  8
0
 10
95.75
 20
72.299
 11
95.8424
 21
72.3482
  0
LINE
  8
0
 10
95.8424
 20
72.3482
 11
95.9381
 21
72.3908
  0
LINE
  8
0
 10
95.9381
 20
72.3908
 11
96.0365
 21
72.4266
  0
LINE
  8
0
 10
96.0365
 20
72.4266
 11
96.1371
 21
72.4554
  0
LINE
  8
0
 10
96.1371
 20
72.4554
 11
96.2395
 21
72.4772
  0
LINE
  8
0
 10
96.2395
 20
72.4772
 11
96.3432
 21
72.4918
  0
LINE
  8
0
 10
96.3432
 20
72.4918
 11
96.4476
 21
72.4991
  0
LINE
  8
0
 10
96.4476
 20
72.4991
 11
96.5524
 21
72.4991
  0
LINE
  8
0
 10
96.5524
 20
72.4991
 11
96.6568
 21
72.4918
  0
LINE
  8
0
 10
96.6568
 20
72.4918
 11
96.7605
 21
72.4772
  0
LINE
  8
0
 10
96.7605
 20
72.4772
 11
96.8629
 21
72.4554
  0
LINE
  8
0
 10
96.8629
 20
72.4554
 11
96.9635
 21
72.4266
  0
LINE
  8
0
 10
96.9635
 20
72.4266
 11
97.0619
 21
72.3908
  0
LINE
  8
0
 10
97.0619
 20
72.3908
 11
97.1576
 21
72.3482
  0
LINE
  8
0
 10
97.1576
 20
72.3482
 11
97.25
 21
72.299
  0
LINE
  8
0
 10
97.25
 20
72.299
 11
97.3388
 21
72.2436
  0
LINE
  8
0
 10
97.3388
 20
72.2436
 11
97.4235
 21
72.182
  0
LINE
  8
0
 10
97.4235
 20
72.182
 11
97.5037
 21
72.1147
  0
LINE
  8
0
 10
97.5037
 20
72.1147
 11
97.579
 21
72.042
  0
LINE
  8
0
 10
97.579
 20
72.042
 11
97.6491
 21
71.9642
  0
LINE
  8
0
 10
97.6491
 20
71.9642
 11
97.7135
 21
71.8817
  0
LINE
  8
0
 10
97.7135
 20
71.8817
 11
97.7721
 21
71.7949
  0
LINE
  8
0
 10
97.7721
 20
71.7949
 11
97.8244
 21
71.7042
  0
LINE
  8
0
 10
97.8244
 20
71.7042
 11
97.8703
 21
71.6101
  0
LINE
  8
0
 10
97.8703
 20
71.6101
 11
97.9095
 21
71.513
  0
LINE
  8
0
 10
97.9095
 20
71.513
 11
97.9419
 21
71.4135
  0
LINE
  8
0
 10
97.9419
 20
71.4135
 11
97.9672
 21
71.3119
  0
LINE
  8
0
 10
97.9672
 20
71.3119
 11
97.9854
 21
71.2088
  0
LINE
  8
0
 10
97.9854
 20
71.2088
 11
97.9963
 21
71.1046
  0
LINE
  8
0
 10
97.9963
 20
71.1046
 11
98
 21
71
  0
LINE
  8
0
 10
98
 20
71
 11
97.9963
 21
70.8954
  0
LINE
  8
0
 10
97.9963
 20
70.8954
 11
97.9854
 21
70.7912
  0
LINE
  8
0
 10
97.9854
 20
70.7912
 11
97.9672
 21
70.6881
  0
LINE
  8
0
 10
97.9672
 20
70.6881
 11
97.9419
 21
70.5865
  0
LINE
  8
0
 10
97.9419
 20
70.5865
 11
97.9095
 21
70.487
  0
LINE
  8
0
 10
97.9095
 20
70.487
 11
97.8703
 21
70.3899
  0
LINE
  8
0
 10
97.8703
 20
70.3899
 11
97.8244
 21
70.2958
  0
LINE
  8
0
 10
97.8244
 20
70.2958
 11
97.7721
 21
70.2051
  0
LINE
  8
0
 10
97.7721
 20
70.2051
 11
97.7135
 21
70.1183
  0
LINE
  8
0
 10
97.7135
 20
70.1183
 11
97.6491
 21
70.0358
  0
LINE
  8
0
 10
97.6491
 20
70.0358
 11
97.579
 21
69.958
  0
LINE
  8
0
 10
97.579
 20
69.958
 11
97.5037
 21
69.8853
  0
LINE
  8
0
 10
97.5037
 20
69.8853
 11
97.4235
 21
69.818
  0
LINE
  8
0
 10
97.4235
 20
69.818
 11
97.3388
 21
69.7564
  0
LINE
  8
0
 10
97.3388
 20
69.7564
 11
97.25
 21
69.701
  0
LINE
  8
0
 10
97.25
 20
69.701
 11
97.1576
 21
69.6518
  0
LINE
  8
0
 10
97.1576
 20
69.6518
 11
97.0619
 21
69.6092
  0
LINE
  8
0
 10
97.0619
 20
69.6092
 11
96.9635
 21
69.5734
  0
LINE
  8
0
 10
96.9635
 20
69.5734
 11
96.8629
 21
69.5446
  0
LINE
  8
0
 10
96.8629
 20
69.5446
 11
96.7605
 21
69.5228
  0
LINE
  8
0
 10
96.7605
 20
69.5228
 11
96.6568
 21
69.5082
  0
LINE
  8
0
 10
96.6568
 20
69.5082
 11
96.5524
 21
69.5009
  0
LINE
  8
0
 10
96.5524
 20
69.5009
 11
96.4476
 21
69.5009
  0
LINE
  8
0
 10
96.4476
 20
69.5009
 11
96.3432
 21
69.5082
  0
LINE
  8
0
 10
96.3432
 20
69.5082
 11
96.2395
 21
69.5228
  0
LINE
  8
0
 10
96.2395
 20
69.5228
 11
96.1371
 21
69.5446
  0
LINE
  8
0
 10
96.1371
 20
69.5446
 11
96.0365
 21
69.5734
  0
LINE
  8
0
 10
96.0365
 20
69.5734
 11
95.9381
 21
69.6092
  0
LINE
  8
0
 10
95.9381
 20
69.6092
 11
95.8424
 21
69.6518
  0
LINE
  8
0
 10
95.8424
 20
69.6518
 11
95.75
 21
69.701
  0
LINE
  8
0
 10
95.75
 20
69.701
 11
95.6612
 21
69.7564
  0
LINE
  8
0
 10
95.6612
 20
69.7564
 11
95.5765
 21
69.818
  0
LINE
  8
0
 10
95.5765
 20
69.818
 11
95.4963
 21
69.8853
  0
LINE
  8
0
 10
95.4963
 20
69.8853
 11
95.421
 21
69.958
  0
LINE
  8
0
 10
95.421
 20
69.958
 11
95.3509
 21
70.0358
  0
LINE
  8
0
 10
95.3509
 20
70.0358
 11
95.2865
 21
70.1183
  0
LINE
  8
0
 10
95.2865
 20
70.1183
 11
95.2279
 21
70.2051
  0
LINE
  8
0
 10
95.2279
 20
70.2051
 11
95.1756
 21
70.2958
  0
LINE
  8
0
 10
95.1756
 20
70.2958
 11
95.1297
 21
70.3899
  0
LINE
  8
0
 10
95.1297
 20
70.3899
 11
95.0905
 21
70.487
  0
LINE
  8
0
 10
95.0905
 20
70.487
 11
95.0581
 21
70.5865
  0
LINE
  8
0
 10
95.0581
 20
70.5865
 11
95.0328
 21
70.6881
  0
LINE
  8
0
 10
95.0328
 20
70.6881
 11
95.0146
 21
70.7912
  0
LINE
  8
0
 10
95.0146
 20
70.7912
 11
95.0037
 21
70.8954
  0
LINE
  8
0
 10
95.0037
 20
70.8954
 11
95
 21
71
  0
ENDSEC
  0
SECTION
  2
OBJECTS
  0
DICTIONARY
  0
ENDSEC
  0
EOF
